<svg width="30" height="30" viewBox="0 0 30 30" fill="none" xmlns="http://www.w3.org/2000/svg">
<path d="M21.7969 9.375V8.67188C21.7955 6.89877 21.1021 5.19624 19.8642 3.92676C18.6263 2.65727 16.9418 1.92111 15.1693 1.875C15.1107 1.875 15.0568 1.875 15 1.875C14.9432 1.875 14.8869 1.875 14.8307 1.875C13.0582 1.92111 11.3737 2.65727 10.1358 3.92676C8.89795 5.19624 8.20451 6.89877 8.20312 8.67188V9.375H3.04688C2.98471 9.375 2.9251 9.39969 2.88115 9.44365C2.83719 9.4876 2.8125 9.54721 2.8125 9.60938V27.1875C2.8125 27.4361 2.91127 27.6746 3.08709 27.8504C3.2629 28.0262 3.50136 28.125 3.75 28.125H26.25C26.4986 28.125 26.7371 28.0262 26.9129 27.8504C27.0887 27.6746 27.1875 27.4361 27.1875 27.1875V9.60938C27.1875 9.54721 27.1628 9.4876 27.1189 9.44365C27.0749 9.39969 27.0153 9.375 26.9531 9.375H21.7969ZM19.4531 9.375H10.5469V8.73047C10.5469 6.27891 12.5045 4.24453 14.9561 4.21875C15.5444 4.21357 16.1279 4.32489 16.673 4.5463C17.218 4.76772 17.7139 5.09484 18.1319 5.5088C18.55 5.92277 18.882 6.41539 19.1087 6.95827C19.3355 7.50115 19.4525 8.08354 19.4531 8.67188V9.375Z" fill="black"/>
</svg>
