<svg width="25" height="25" viewBox="0 0 25 25" fill="none" xmlns="http://www.w3.org/2000/svg">
<path d="M23.2811 9.40405C22.2973 6.81506 18.6597 8.32962 17.7277 8.67913L17.4817 8.76974C17.4817 8.76974 20.8733 4.4073 17.3264 2.6209C13.5076 0.692099 11.54 5.10633 11.0869 7.38464C11.0869 7.38464 6.49147 4.03189 4.252 7.15163C2.841 9.02864 3.90249 11.8377 6.49147 13.0416C6.49147 13.0416 1.85718 15.4623 1.55945 18.8797C1.26172 22.2972 6.11607 24.5237 9.68888 21.2616C10.739 20.306 11.7372 19.2948 12.6792 18.2325C12.6792 18.2325 18.0125 24.8603 21.9477 21.5335C25.883 18.2066 20.3426 14.4137 19.6694 14.129H19.6047C19.8132 13.9875 20.0396 13.8743 20.2778 13.7924C21.4429 13.1192 24.1613 11.8765 23.2811 9.44288M13.5335 15.54C12.9006 15.5554 12.2775 15.3818 11.7437 15.0414C11.2099 14.701 10.7897 14.2093 10.5367 13.6289C10.2837 13.0486 10.2095 12.406 10.3234 11.7832C10.4374 11.1605 10.7344 10.5858 11.1765 10.1327C11.6186 9.6795 12.1857 9.36841 12.8055 9.23911C13.4252 9.10981 14.0694 9.16817 14.6559 9.40674C15.2423 9.64532 15.7443 10.0533 16.0978 10.5785C16.4512 11.1037 16.6401 11.7224 16.6403 12.3555C16.6454 12.7686 16.5691 13.1787 16.4158 13.5623C16.2624 13.9459 16.035 14.2955 15.7465 14.5912C15.458 14.8869 15.1141 15.1229 14.7344 15.2857C14.3547 15.4485 13.9466 15.5349 13.5335 15.54Z" fill="black"/>
</svg>
