<svg width="30" height="30" viewBox="0 0 30 30" fill="none" xmlns="http://www.w3.org/2000/svg">
<path d="M7.39787 18.7449L7.39773 18.7448C5.07976 16.0016 4.03302 13.2746 4.06008 10.3645C4.09058 7.38035 6.48077 5 9.31874 5C11.6087 5 13.165 6.32682 14.0369 7.37443L14.9976 8.52885L15.9584 7.37443C16.8303 6.32682 18.3866 5 20.6765 5C23.5148 5 25.9049 7.38076 25.9352 10.3632C25.9645 13.2744 24.9182 15.9993 22.5979 18.7426L22.5972 18.7435C20.6862 21.0072 18.197 22.643 15.8837 24.1633C15.5849 24.3597 15.289 24.5541 14.9976 24.7478C14.7059 24.5539 14.4096 24.3592 14.1104 24.1625C11.7973 22.6425 9.30857 21.0069 7.39787 18.7449Z" stroke="black" stroke-width="2.5"/>
</svg>
