<svg width="30" height="30" viewBox="0 0 30 30" fill="none" xmlns="http://www.w3.org/2000/svg">
<path fill-rule="evenodd" clip-rule="evenodd" d="M27.1875 9.84375H8.4375V7.03125H27.1875V9.84375Z" fill="black"/>
<path fill-rule="evenodd" clip-rule="evenodd" d="M27.1875 16.4062H8.4375V13.5938H27.1875V16.4062Z" fill="black"/>
<path fill-rule="evenodd" clip-rule="evenodd" d="M27.1875 22.9688H8.4375V20.1562H27.1875V22.9688Z" fill="black"/>
<path fill-rule="evenodd" clip-rule="evenodd" d="M2.8125 7.5C2.8125 6.98223 3.23223 6.5625 3.75 6.5625H5.625C6.14277 6.5625 6.5625 6.98223 6.5625 7.5V9.375C6.5625 9.89277 6.14277 10.3125 5.625 10.3125H3.75C3.23223 10.3125 2.8125 9.89277 2.8125 9.375V7.5Z" fill="black"/>
<path fill-rule="evenodd" clip-rule="evenodd" d="M2.8125 14.0625C2.8125 13.5447 3.23223 13.125 3.75 13.125H5.625C6.14277 13.125 6.5625 13.5447 6.5625 14.0625V15.9375C6.5625 16.4553 6.14277 16.875 5.625 16.875H3.75C3.23223 16.875 2.8125 16.4553 2.8125 15.9375V14.0625Z" fill="black"/>
<path fill-rule="evenodd" clip-rule="evenodd" d="M2.8125 20.625C2.8125 20.1072 3.23223 19.6875 3.75 19.6875H5.625C6.14277 19.6875 6.5625 20.1072 6.5625 20.625V22.5C6.5625 23.0178 6.14277 23.4375 5.625 23.4375H3.75C3.23223 23.4375 2.8125 23.0178 2.8125 22.5V20.625Z" fill="black"/>
</svg>
