<svg width="25" height="25" viewBox="0 0 25 25" fill="none" xmlns="http://www.w3.org/2000/svg">
<path d="M24.2188 5.3465C23.3396 5.72851 22.4094 5.98019 21.4575 6.09358C22.4578 5.50782 23.2101 4.57725 23.5732 3.47639C22.6275 4.02941 21.5945 4.41744 20.5186 4.62385C20.0655 4.14901 19.5206 3.77126 18.917 3.51357C18.3133 3.25587 17.6636 3.12361 17.0073 3.12483C14.3501 3.12483 12.1997 5.24397 12.1997 7.85627C12.1978 8.21963 12.2395 8.58191 12.3237 8.93537C10.4183 8.84605 8.5525 8.35997 6.84569 7.50825C5.13889 6.65653 3.62865 5.45791 2.41162 3.98908C1.98466 4.70887 1.75885 5.53012 1.75781 6.36701C1.75781 8.00764 2.61377 9.45783 3.90625 10.3074C3.14049 10.2893 2.39043 10.0866 1.71973 9.71662V9.77522C1.71973 12.0701 3.37988 13.9793 5.57715 14.4139C5.16396 14.524 4.73817 14.5798 4.31055 14.5799C4.00712 14.5804 3.70438 14.551 3.40674 14.492C4.01758 16.3719 5.79541 17.7391 7.90137 17.7781C6.19013 19.097 4.08917 19.8098 1.92871 19.8045C1.54522 19.8039 1.16209 19.7811 0.78125 19.7362C2.97909 21.1396 5.53391 21.8819 8.1416 21.8748C16.9971 21.8748 21.835 14.6629 21.835 8.40803C21.835 8.20295 21.8296 7.99787 21.8198 7.79768C22.7588 7.12974 23.5712 6.29968 24.2188 5.3465Z" fill="black"/>
</svg>
