<svg width="25" height="25" viewBox="0 0 25 25" fill="none" xmlns="http://www.w3.org/2000/svg">
<path fill-rule="evenodd" clip-rule="evenodd" d="M1.5625 12.5C1.5625 6.45964 6.45964 1.5625 12.5 1.5625C18.5404 1.5625 23.4375 6.45964 23.4375 12.5C23.4375 18.5404 18.5404 23.4375 12.5 23.4375C6.45964 23.4375 1.5625 18.5404 1.5625 12.5ZM16.3797 21.037C17.151 20.6859 17.8663 20.2333 18.5087 19.6964C18.1784 19.4796 17.833 19.2801 17.4741 19.0994C17.3254 19.4356 17.166 19.7566 16.997 20.0608C16.807 20.4029 16.6007 20.7302 16.3797 21.037ZM18.0252 17.6289C18.5924 17.9046 19.1323 18.2215 19.6401 18.5754C20.8756 17.1248 21.6769 15.2931 21.8429 13.2812H18.7661C18.6998 14.8396 18.4374 16.3132 18.0252 17.6289ZM17.2021 13.2812C17.139 14.6377 16.9142 15.9078 16.5733 17.0347C15.5355 16.6853 14.4302 16.4657 13.2812 16.3969V13.2812H17.2021ZM18.7661 11.7188H21.8429C21.6769 9.70692 20.8756 7.87516 19.6401 6.42456C19.1323 6.77853 18.5924 7.09545 18.0252 7.37112C18.4374 8.68678 18.6998 10.1604 18.7661 11.7188ZM16.5733 7.96527C16.9142 9.09222 17.139 10.3623 17.2021 11.7188H13.2812V8.60313C14.4302 8.53431 15.5355 8.31474 16.5733 7.96527ZM17.4741 5.90056C17.833 5.71991 18.1784 5.52041 18.5087 5.30363C17.8663 4.76668 17.151 4.31412 16.3797 3.96302C16.6007 4.26984 16.807 4.59707 16.997 4.93918C17.166 5.24338 17.3254 5.56441 17.4741 5.90056ZM8.62031 3.96302C7.84903 4.31412 7.13366 4.76668 6.49128 5.30363C6.82159 5.52041 7.167 5.71991 7.5259 5.90056C7.67464 5.56441 7.83404 5.24338 8.00302 4.93918C8.19305 4.59707 8.39927 4.26984 8.62031 3.96302ZM6.97478 7.37112C6.40762 7.09545 5.86771 6.77852 5.35993 6.42456C4.1244 7.87516 3.32309 9.70692 3.15709 11.7188H6.23387C6.30015 10.1604 6.56263 8.68678 6.97478 7.37112ZM7.79789 11.7188C7.86095 10.3623 8.0858 9.09222 8.42674 7.96527C9.46448 8.31474 10.5698 8.53431 11.7188 8.60313V11.7188H7.79789ZM6.23387 13.2812H3.15709C3.32309 15.2931 4.1244 17.1248 5.35993 18.5754C5.86771 18.2215 6.40762 17.9046 6.97478 17.6289C6.56263 16.3132 6.30015 14.8396 6.23387 13.2812ZM8.42674 17.0347C8.0858 15.9078 7.86095 14.6377 7.79789 13.2812H11.7188V16.3969C10.5698 16.4657 9.46448 16.6853 8.42674 17.0347ZM7.5259 19.0994C7.67464 19.4356 7.83404 19.7566 8.00302 20.0608C8.19305 20.4029 8.39927 20.7302 8.62031 21.037C7.84903 20.6859 7.13366 20.2333 6.49128 19.6964C6.82159 19.4796 7.167 19.2801 7.5259 19.0994ZM8.96968 18.5007C9.83603 18.2131 10.7583 18.028 11.7188 17.9626V21.7145C10.9311 21.3982 10.0952 20.6096 9.36893 19.3021C9.22877 19.0498 9.09533 18.7822 8.96968 18.5007ZM13.2812 17.9626C14.2417 18.028 15.164 18.2131 16.0303 18.5007C15.9047 18.7822 15.7712 19.0498 15.6311 19.3021C14.9048 20.6096 14.0689 21.3982 13.2812 21.7145V17.9626ZM11.7188 7.03745C10.7583 6.97199 9.83603 6.78691 8.96968 6.49929C9.09533 6.21781 9.22877 5.95024 9.36893 5.69791C10.0952 4.39042 10.9311 3.60177 11.7188 3.28554V7.03745ZM13.2812 7.03745C14.2417 6.97199 15.164 6.78691 16.0303 6.49929C15.9047 6.21781 15.7712 5.95024 15.6311 5.69791C14.9048 4.39042 14.0689 3.60177 13.2812 3.28554V7.03745Z" fill="black"/>
</svg>
